<?xml version="1.0" standalone="no"?>
<!DOCTYPE svg PUBLIC "-//W3C//DTD SVG 20010904//EN"
 "http://www.w3.org/TR/2001/REC-SVG-20010904/DTD/svg10.dtd">
<svg version="1.0" xmlns="http://www.w3.org/2000/svg"
 width="200.000000pt" height="200.000000pt" viewBox="0 0 200.000000 200.000000"
 preserveAspectRatio="xMidYMid meet">
<metadata>
Created by potrace 1.15, written by Peter Selinger 2001-2017
</metadata>
<g transform="translate(0.000000,200.000000) scale(0.100000,-0.100000)"
fill="#000000" stroke="none">
<path d="M20 990 l0 -990 990 0 990 0 0 990 0 990 -990 0 -990 0 0 -990z
m1910 0 l0 -920 -920 0 -920 0 0 920 0 920 920 0 920 0 0 -920z"/>
<path d="M970 1623 c-35 -14 -70 -69 -70 -110 0 -43 16 -82 45 -109 14 -13 25
-27 25 -33 0 -24 -33 -41 -79 -41 l-49 0 -71 -212 c-39 -117 -71 -223 -71
-235 0 -21 5 -23 48 -23 l48 0 38 120 c22 65 42 118 45 115 3 -2 14 -19 24
-37 l18 -34 -96 -255 c-104 -271 -138 -370 -131 -376 2 -2 38 -5 80 -6 l75 -2
21 49 c11 27 20 53 20 58 0 30 128 347 140 348 3 0 16 -28 27 -62 12 -35 48
-139 81 -233 l58 -170 72 -3 c54 -2 74 1 78 11 6 16 -27 118 -135 417 l-82
225 17 37 c9 21 20 35 24 33 4 -3 25 -59 46 -125 l38 -120 48 0 c39 0 48 3 48
17 0 16 -108 372 -132 435 -9 24 -16 27 -67 30 -49 3 -56 6 -59 25 -2 12 9 35
26 55 55 62 51 142 -9 193 -24 19 -41 25 -77 24 -26 0 -54 -3 -62 -6z"/>
</g>
</svg>
