<?xml version="1.0" standalone="no"?>
<!DOCTYPE svg PUBLIC "-//W3C//DTD SVG 20010904//EN"
 "http://www.w3.org/TR/2001/REC-SVG-20010904/DTD/svg10.dtd">
<svg version="1.0" xmlns="http://www.w3.org/2000/svg"
 width="200.000000pt" height="200.000000pt" viewBox="0 0 200.000000 200.000000"
 preserveAspectRatio="xMidYMid meet">
<metadata>
Created by potrace 1.15, written by Peter Selinger 2001-2017
</metadata>
<g transform="translate(0.000000,200.000000) scale(0.100000,-0.100000)"
fill="#000000" stroke="none">
<path d="M0 1000 l0 -1000 1000 0 1000 0 0 1000 0 1000 -1000 0 -1000 0 0
-1000z m1950 5 l0 -955 -955 0 -955 0 0 955 0 955 955 0 955 0 0 -955z"/>
<path d="M837 1865 c-91 -25 -158 -89 -173 -165 -5 -23 -15 -35 -35 -42 -16
-5 -29 -13 -30 -16 -3 -23 -14 -81 -25 -123 -8 -35 20 -87 51 -95 23 -6 24 -9
20 -81 -1 -42 -7 -78 -12 -82 -6 -3 -10 -13 -11 -21 -1 -18 -36 -163 -57 -240
-9 -30 -17 -101 -18 -157 -1 -56 -5 -104 -8 -108 -4 -3 -25 -3 -48 1 l-41 7 0
106 c0 117 21 215 65 302 28 54 29 59 15 59 -14 0 -64 -104 -85 -180 -26 -89
-25 -295 1 -314 12 -9 16 -26 16 -65 -2 -58 7 -82 46 -123 31 -34 50 -36 54
-6 2 16 11 24 30 26 24 3 28 -1 38 -40 6 -24 18 -68 27 -98 32 -110 33 -133
11 -157 -11 -11 -22 -39 -25 -62 l-6 -41 317 0 316 0 0 34 c0 22 -9 45 -25 64
-25 29 -25 30 -9 88 9 33 20 77 25 99 11 49 66 227 85 275 7 19 16 57 20 84 7
53 27 100 37 89 4 -3 7 -170 7 -370 0 -356 0 -363 20 -363 20 0 20 6 18 268
l-3 267 -2 -257 c-2 -161 -7 -258 -13 -258 -14 0 -14 707 0 715 6 4 11 -31 12
-97 l2 -103 3 97 4 98 31 16 c54 28 69 53 65 107 -5 55 -33 91 -105 133 -65
38 -62 22 6 -31 84 -65 101 -109 61 -159 -28 -36 -35 -33 -31 15 4 34 1 41
-17 46 -11 3 -21 9 -21 14 0 5 -11 9 -25 9 -14 0 -25 5 -25 10 0 6 -11 10 -24
10 -13 0 -28 6 -34 13 -8 10 -52 139 -52 153 0 12 22 0 56 -32 25 -24 40 -32
42 -24 5 13 -2 20 -68 70 -18 14 -35 27 -39 30 -3 3 -7 39 -8 82 -1 73 0 76
23 82 49 13 61 54 40 136 -4 14 -9 38 -11 54 -4 29 -19 46 -42 46 -7 0 -17 17
-22 38 -33 119 -141 183 -304 181 -34 0 -84 -7 -110 -14z m278 -40 c61 -30 98
-71 113 -128 9 -32 8 -38 -8 -47 -14 -8 -19 -25 -22 -84 -4 -94 -20 -115 -83
-111 -24 2 -49 6 -55 10 -6 4 -14 4 -18 0 -3 -3 0 -10 7 -14 17 -11 4 -34 -14
-27 -7 2 -21 -2 -32 -9 -23 -18 -61 -18 -92 -1 -14 8 -30 12 -37 9 -17 -6 -29
18 -13 28 7 4 10 11 7 14 -4 4 -12 4 -18 0 -6 -4 -31 -8 -55 -10 -63 -4 -79
17 -83 111 -3 59 -8 76 -22 84 -15 8 -17 16 -11 38 35 119 135 176 299 168 64
-3 95 -10 137 -31z m-420 -258 c2 -90 24 -121 86 -125 27 -2 52 -11 66 -24 12
-11 26 -17 31 -14 6 3 23 -1 38 -9 36 -18 42 -18 77 0 15 8 33 12 40 9 7 -2
22 4 32 16 13 14 31 20 61 20 70 0 103 58 92 161 -3 31 0 34 25 37 42 5 62 -5
48 -22 -9 -10 -8 -15 4 -20 24 -9 18 -26 -9 -26 -28 0 -30 -3 -40 -44 -6 -26
-5 -28 8 -17 9 8 16 20 16 27 0 24 30 15 41 -12 7 -20 6 -32 -6 -50 -15 -24
-45 -33 -45 -14 0 6 8 10 18 10 14 0 14 2 3 9 -13 8 -13 12 0 28 13 17 13 17
-11 2 -30 -20 -42 -81 -29 -152 6 -36 5 -57 -6 -83 -13 -32 -13 -34 5 -34 15
0 24 -17 44 -80 l26 -80 -21 -23 c-11 -12 -34 -36 -51 -53 -24 -25 -32 -43
-36 -83 -4 -41 -1 -52 12 -57 24 -9 44 12 28 28 -9 9 -12 9 -12 -1 0 -7 -4 -9
-10 -6 -16 10 -11 48 11 84 26 42 34 35 14 -13 -15 -35 -15 -37 8 -62 14 -14
40 -29 58 -33 33 -7 34 -9 33 -52 0 -73 -19 -105 -78 -133 -61 -29 -147 -46
-232 -46 l-62 0 -7 143 c-3 78 -5 180 -3 227 l3 84 42 8 c55 9 133 44 133 59
0 7 -7 8 -17 4 -68 -27 -132 -45 -163 -45 -48 0 -135 26 -187 56 -48 28 -59
16 -14 -15 35 -26 72 -40 136 -56 l50 -12 2 -226 2 -227 -77 0 c-134 0 -248
38 -287 96 -18 27 -19 40 -14 144 7 126 51 335 75 360 14 13 17 13 30 -4 8
-11 14 -16 15 -10 0 5 5 -2 11 -16 6 -16 12 -20 15 -12 3 7 -7 31 -22 52 -23
33 -27 49 -25 92 6 128 0 203 -17 231 -3 5 -14 7 -24 4 -26 -7 -36 13 -15 29
11 8 13 14 6 19 -20 12 2 26 38 23 l36 -3 1 -68z m-10 -931 c46 -19 69 -21
270 -21 217 0 221 0 285 27 35 15 65 26 67 25 1 -2 -7 -28 -18 -58 -24 -62
-70 -228 -77 -276 -4 -32 -5 -33 -56 -33 -28 0 -81 -3 -118 -7 l-68 -6 0 117
c0 115 0 117 25 126 14 5 25 11 25 12 0 2 -29 3 -65 3 -36 0 -65 -1 -65 -3 0
-1 11 -7 25 -12 25 -9 25 -11 25 -126 l0 -117 -77 7 c-42 3 -95 6 -118 6 -41
0 -43 2 -48 33 -7 48 -43 182 -71 265 -22 65 -23 73 -8 67 9 -4 40 -17 67 -29z
m223 -372 c30 -6 32 -8 32 -50 l0 -44 -140 0 c-130 0 -140 1 -140 19 0 23 36
70 64 82 20 9 115 5 184 -7z m314 -23 c15 -17 28 -40 28 -51 0 -19 -7 -20
-140 -20 l-140 0 0 44 0 45 43 5 c23 3 53 8 67 10 14 2 45 3 70 1 35 -2 50
-10 72 -34z"/>
</g>
</svg>
