<?xml version="1.0" standalone="no"?>
<!DOCTYPE svg PUBLIC "-//W3C//DTD SVG 20010904//EN"
 "http://www.w3.org/TR/2001/REC-SVG-20010904/DTD/svg10.dtd">
<svg version="1.0" xmlns="http://www.w3.org/2000/svg"
 width="200px" height="200px" viewBox="0 0 200 200"
 preserveAspectRatio="xMidYMid meet">
<metadata>
Created by potrace 1.15, written by Peter Selinger 2001-2017
</metadata>
<g transform="translate(0.000000,200.000000) scale(0.100000,-0.100000)"
fill="#000000" stroke="none">
<path d="M0 1000 l0 -1000 1000 0 1000 0 0 1000 0 1000 -1000 0 -1000 0 0
-1000z m1940 0 l0 -940 -940 0 -940 0 0 940 c0 517 0 941 0 943 0 1 423 1 940
0 l940 -3 0 -940z"/>
<path d="M1280 1829 c-29 -12 -59 -47 -60 -70 0 -23 -40 -32 -60 -14 -88 80
-305 77 -418 -5 -51 -36 -70 -38 -78 -6 -12 50 -67 73 -120 51 -39 -16 -63
-58 -71 -127 -6 -49 -25 -80 -54 -90 -24 -8 2 -27 47 -34 58 -8 118 9 151 44
l26 27 -9 -25 c-5 -14 -8 -39 -8 -57 0 -24 -5 -34 -23 -42 -32 -15 -27 -51 9
-69 16 -7 31 -26 38 -46 20 -61 100 -130 193 -165 15 -6 27 -15 27 -20 0 -16
-76 -106 -117 -139 -61 -48 -143 -86 -156 -73 -15 15 -50 14 -65 -1 -17 -17
-15 -65 4 -72 30 -11 54 -6 66 15 7 11 40 34 72 52 33 17 84 54 114 82 36 32
53 43 49 30 -30 -94 -130 -592 -122 -605 3 -6 47 -10 96 -10 l91 0 -6 -37 c-3
-21 -11 -75 -17 -120 -11 -80 -11 -81 -34 -71 -30 14 -72 3 -85 -21 -24 -45
23 -72 91 -52 21 7 39 13 40 14 1 1 9 67 18 147 l16 144 85 13 c47 6 90 12 96
13 7 0 14 -44 18 -122 11 -187 14 -200 58 -216 33 -13 40 -13 63 2 50 33 22
76 -48 76 l-35 0 -6 88 c-4 48 -9 108 -12 133 l-5 46 83 9 83 9 3 31 c5 54
-64 290 -134 462 -19 45 -34 84 -34 85 0 2 26 -9 58 -25 39 -19 74 -28 112
-30 30 0 65 -8 78 -16 19 -13 25 -12 47 2 28 18 30 28 15 57 -14 25 -55 24
-73 -2 -14 -19 -19 -20 -78 -9 -85 15 -143 42 -179 82 -17 18 -30 35 -30 38 0
4 15 14 34 22 78 38 128 100 151 188 9 34 17 46 36 50 17 4 25 14 27 33 3 23
-2 30 -31 42 -28 11 -36 21 -41 50 -4 20 -10 43 -13 51 -4 11 5 9 31 -7 40
-23 102 -23 161 1 l30 12 -24 19 c-15 13 -30 42 -40 81 -21 81 -73 119 -131
97z m-256 -228 c29 -11 88 -24 131 -30 43 -6 80 -13 83 -15 11 -11 13 -126 2
-164 -14 -54 -80 -129 -137 -154 -196 -87 -443 43 -443 233 0 34 3 38 54 63
51 25 156 124 156 147 0 5 23 -6 50 -25 28 -19 74 -44 104 -55z m46 -448 c77
-164 146 -351 181 -487 11 -44 22 -89 25 -98 4 -14 -5 -18 -53 -23 -49 -5
-117 -16 -273 -42 -43 -7 -200 -16 -200 -11 0 3 11 58 24 124 14 65 28 135 31
154 4 19 22 99 41 177 19 77 37 162 40 187 l7 46 82 0 c79 0 82 -1 95 -27z"/>
</g>
</svg>
