<?xml version="1.0" standalone="no"?>
<!DOCTYPE svg PUBLIC "-//W3C//DTD SVG 20010904//EN"
 "http://www.w3.org/TR/2001/REC-SVG-20010904/DTD/svg10.dtd">
<svg version="1.0" xmlns="http://www.w3.org/2000/svg"
 width="200.000000pt" height="200.000000pt" viewBox="0 0 200.000000 200.000000"
 preserveAspectRatio="xMidYMid meet">
<metadata>
Created by potrace 1.15, written by Peter Selinger 2001-2017
</metadata>
<g transform="translate(0.000000,200.000000) scale(0.100000,-0.100000)"
fill="#000000" stroke="none">
<path d="M20 980 l0 -980 990 0 990 0 0 980 0 980 -990 0 -990 0 0 -980z
m1930 5 l0 -935 -945 0 -945 0 0 928 c0 511 3 932 7 935 3 4 429 7 945 7 l938
0 0 -935z"/>
<path d="M973 1769 c-84 -24 -109 -153 -43 -216 50 -47 37 -73 -42 -88 -43 -8
-29 20 -147 -311 -39 -110 -71 -203 -71 -208 0 -4 23 -6 51 -4 l51 3 56 133
c31 72 59 132 63 132 4 0 10 -12 13 -27 5 -21 -16 -84 -83 -250 l-89 -223 78
0 c43 0 81 -4 84 -8 3 -5 17 -73 31 -153 14 -79 30 -168 36 -196 l10 -53 43 0
42 0 33 177 c46 250 35 228 117 229 52 1 68 5 67 15 -2 8 -39 112 -83 232 -65
178 -78 223 -69 239 6 11 14 16 18 12 4 -5 28 -64 52 -131 l44 -123 52 0 52 0
-9 28 c-36 120 -130 444 -130 448 0 2 -27 16 -59 30 -69 30 -83 56 -44 81 81
53 63 191 -30 228 -42 17 -49 17 -94 4z"/>
</g>
</svg>
